<?xml version="1.0" encoding="UTF-8" standalone="no"?>
<!DOCTYPE svg PUBLIC "-//W3C//DTD SVG 1.1//EN" "http://www.w3.org/Graphics/SVG/1.1/DTD/svg11.dtd">
<svg width="100%" height="100%" viewBox="0 0 635 635" version="1.1" xmlns="http://www.w3.org/2000/svg" xmlns:xlink="http://www.w3.org/1999/xlink" xml:space="preserve" xmlns:serif="http://www.serif.com/" style="fill-rule:evenodd;clip-rule:evenodd;stroke-linejoin:round;stroke-miterlimit:2;">
    <g transform="matrix(1,0,0,1,-790,-152.673)">
        <g transform="matrix(1,0,0,1,187.327,-10.0002)">
            <g>
                <g transform="matrix(-1.66533e-16,0.795559,0.771467,1.66533e-16,491.974,-1223.12)">
                    <path d="M1959.78,800.14L1959.78,913.446C1959.78,936.355 1977.79,954.926 2000,954.926C2022.22,954.926 2040.22,936.355 2040.22,913.446L2040.22,700C2040.22,689.459 2036.41,679.835 2030.13,672.518C2028.55,670.68 2026.82,668.981 2024.93,667.446C2018.3,662.035 2009.97,658.735 2000.9,658.53C2000.6,658.523 2000.3,658.52 2000,658.52L1793.02,658.521C1770.82,658.521 1752.79,677.107 1752.79,700C1752.79,722.893 1770.82,741.479 1793.02,741.479L1902.89,741.479L1753.68,895.35C1737.98,911.538 1737.98,937.823 1753.68,954.011C1769.38,970.198 1794.87,970.198 1810.57,954.011L1959.78,800.14Z" style="fill:rgb(0,0,0);"/>
                </g>
                <g transform="matrix(-0.795559,5.88301e-17,5.20054e-17,0.771467,2623.12,51.9736)">
                    <path d="M1959.78,800.14L1959.78,913.446C1959.78,936.355 1977.79,954.926 2000,954.926C2022.22,954.926 2040.22,936.355 2040.22,913.446L2040.22,700C2040.22,689.459 2036.41,679.835 2030.13,672.518C2028.55,670.68 2026.82,668.981 2024.93,667.446C2018.3,662.035 2009.97,658.735 2000.9,658.53C2000.6,658.523 2000.3,658.52 2000,658.52L1793.02,658.521C1770.82,658.521 1752.79,677.107 1752.79,700C1752.79,722.893 1770.82,741.479 1793.02,741.479L1902.89,741.479L1753.68,895.35C1737.98,911.538 1737.98,937.823 1753.68,954.011C1769.38,970.198 1794.87,970.198 1810.57,954.011L1959.78,800.14Z" style="fill:rgb(0,0,0);"/>
                </g>
                <g transform="matrix(-2.84194e-16,-0.795559,-0.771467,2.70544e-16,1348.03,2183.12)">
                    <path d="M1959.78,800.14L1959.78,913.446C1959.78,936.355 1977.79,954.926 2000,954.926C2022.22,954.926 2040.22,936.355 2040.22,913.446L2040.22,700C2040.22,689.459 2036.41,679.835 2030.13,672.518C2028.55,670.68 2026.82,668.981 2024.93,667.446C2018.3,662.035 2009.97,658.735 2000.9,658.53C2000.6,658.523 2000.3,658.52 2000,658.52L1793.02,658.521C1770.82,658.521 1752.79,677.107 1752.79,700C1752.79,722.893 1770.82,741.479 1793.02,741.479L1902.89,741.479L1753.68,895.35C1737.98,911.538 1737.98,937.823 1753.68,954.011C1769.38,970.198 1794.87,970.198 1810.57,954.011L1959.78,800.14Z" style="fill:rgb(0,0,0);"/>
                </g>
                <g transform="matrix(0.795559,-5.09557e-16,-4.89083e-16,-0.771467,-783.118,908.027)">
                    <path d="M1959.78,800.14L1959.78,913.446C1959.78,936.355 1977.79,954.926 2000,954.926C2022.22,954.926 2040.22,936.355 2040.22,913.446L2040.22,700C2040.22,689.459 2036.41,679.835 2030.13,672.518C2028.55,670.68 2026.82,668.981 2024.93,667.446C2018.3,662.035 2009.97,658.735 2000.9,658.53C2000.6,658.523 2000.3,658.52 2000,658.52L1793.02,658.521C1770.82,658.521 1752.79,677.107 1752.79,700C1752.79,722.893 1770.82,741.479 1793.02,741.479L1902.89,741.479L1753.68,895.35C1737.98,911.538 1737.98,937.823 1753.68,954.011C1769.38,970.198 1794.87,970.198 1810.57,954.011L1959.78,800.14Z" style="fill:rgb(0,0,0);"/>
                </g>
            </g>
            <g transform="matrix(1.41421,1.41421,-1.41421,1.41421,-1059.9,-3196.96)">
                <path d="M2020,590L2020,610C2020,615.519 2015.52,620 2010,620L1990,620C1984.48,620 1980,615.519 1980,610L1980,590C1980,584.481 1984.48,580 1990,580L2010,580C2015.52,580 2020,584.481 2020,590Z" style="fill:rgb(0,0,0);"/>
            </g>
        </g>
    </g>
</svg>
